<?xml version="1.0" standalone="no"?>
<!DOCTYPE svg PUBLIC "-//W3C//DTD SVG 20010904//EN"
 "http://www.w3.org/TR/2001/REC-SVG-20010904/DTD/svg10.dtd">
<svg version="1.0" xmlns="http://www.w3.org/2000/svg"
 width="1024.000000pt" height="1024.000000pt" viewBox="0 0 1024.000000 1024.000000"
 preserveAspectRatio="xMidYMid meet">

<g transform="translate(0.000000,1024.000000) scale(0.100000,-0.100000)"
fill="#000000" stroke="none">
<path d="M5055 8563 c-93 -20 -117 -55 -126 -185 -6 -86 -11 -109 -43 -172
-59 -119 -119 -168 -354 -283 -209 -102 -288 -150 -364 -221 -68 -63 -135
-166 -164 -252 -30 -88 -42 -241 -26 -335 6 -36 6 -61 1 -63 -5 -2 -33 -21
-61 -42 -99 -75 -179 -198 -209 -320 -20 -80 -17 -249 5 -344 17 -76 17 -79 0
-89 -34 -19 -74 -71 -80 -105 -8 -41 7 -135 51 -330 152 -673 455 -1076 861
-1147 69 -12 182 -15 568 -15 266 0 512 5 550 10 383 56 690 418 851 1007 42
150 95 401 95 444 0 41 -23 81 -64 116 l-35 29 16 59 c23 84 22 270 -1 355
-38 141 -154 300 -259 355 l-37 20 0 72 c0 284 -179 552 -430 644 l-56 20 -13
77 c-38 231 -185 432 -440 604 -65 45 -186 101 -209 97 -4 -1 -16 -3 -27 -6z
m181 -366 c88 -65 172 -162 210 -241 60 -124 43 -239 -45 -319 -52 -47 -69
-54 -373 -162 -134 -48 -367 -131 -520 -186 -152 -54 -282 -99 -288 -99 -9 0
-11 16 -6 62 14 121 71 221 168 296 29 22 127 77 218 122 91 45 196 102 233
127 142 91 271 250 314 385 10 32 21 58 24 58 4 0 33 -19 65 -43z m544 -687
c48 -25 123 -106 155 -170 100 -197 44 -405 -137 -508 -51 -29 -615 -237 -858
-317 -199 -65 -220 -83 -220 -185 l0 -60 -334 0 c-184 0 -346 4 -359 9 -16 6
-34 29 -50 63 -78 164 -41 347 96 474 79 75 139 104 422 204 517 183 904 325
975 359 53 25 94 55 140 101 63 63 66 65 100 57 19 -5 51 -17 70 -27z m438
-755 c14 -16 39 -59 56 -95 27 -58 31 -75 30 -150 -1 -61 -7 -101 -23 -141
-39 -102 21 -94 -660 -96 -596 -2 -596 -2 -546 17 28 10 187 69 355 130 168
61 350 134 405 160 115 56 214 129 265 193 l35 45 29 -17 c15 -9 40 -29 54
-46z m122 -752 c0 -31 -67 -273 -110 -398 -51 -149 -136 -328 -194 -409 -54
-75 -156 -174 -216 -208 -25 -15 -76 -37 -115 -49 -68 -23 -81 -23 -549 -27
-512 -3 -571 1 -681 48 -191 82 -348 296 -463 630 -45 132 -98 313 -111 383
l-8 47 1223 0 c1159 0 1224 -1 1224 -17z"/>
<path d="M1929 4141 c-73 -23 -141 -71 -178 -124 -45 -66 -61 -135 -61 -267
l0 -117 -46 -7 c-26 -3 -64 -6 -85 -6 -62 0 -79 -25 -79 -114 0 -97 11 -106
127 -106 l83 0 0 -475 0 -476 25 -24 c22 -22 32 -25 104 -25 90 0 124 11 140
47 8 16 11 169 11 488 l0 465 125 0 c157 0 165 5 165 109 0 63 -2 71 -26 90
-24 19 -40 21 -145 21 l-119 0 0 90 c0 107 15 151 62 181 29 18 43 20 125 15
90 -5 93 -5 109 18 9 15 17 58 21 115 l6 91 -36 15 c-53 22 -254 20 -328 -4z"/>
<path d="M7390 4121 c-73 -38 -106 -131 -75 -209 51 -127 217 -147 302 -36 57
76 26 207 -60 247 -47 23 -124 22 -167 -2z"/>
<path d="M8240 3953 c-8 -2 -46 -16 -84 -30 -87 -33 -96 -51 -96 -198 l0 -105
-74 0 c-63 0 -79 -3 -101 -22 -22 -20 -26 -32 -27 -90 -3 -96 10 -108 118
-108 l83 0 3 -387 c3 -340 6 -394 22 -434 41 -109 144 -180 293 -201 136 -19
279 16 319 77 15 23 15 30 -1 95 -23 94 -34 104 -99 94 -132 -22 -197 -6 -236
59 -19 30 -20 53 -20 365 l0 333 157 -2 c187 -1 183 -4 183 111 0 109 1 109
-189 112 l-153 3 1 142 c2 140 1 143 -23 168 -24 24 -44 29 -76 18z"/>
<path d="M3812 3630 c-207 -55 -371 -219 -428 -430 -23 -86 -23 -270 0 -364
40 -165 170 -330 316 -398 102 -49 167 -63 285 -62 122 0 185 14 292 65 162
77 281 235 319 424 35 170 4 366 -78 502 -43 72 -148 170 -225 211 -134 71
-328 92 -481 52z m314 -252 c104 -54 173 -159 194 -295 29 -186 -51 -363 -195
-434 -42 -20 -65 -24 -140 -24 -74 0 -98 4 -133 23 -130 69 -202 202 -202 372
1 133 34 225 110 301 66 66 133 90 235 86 62 -3 91 -9 131 -29z"/>
<path d="M3020 3631 c-82 -16 -171 -77 -228 -156 l-21 -30 -1 77 c0 103 -12
111 -139 107 -145 -6 -131 58 -131 -609 0 -679 -14 -615 139 -614 82 0 105 3
119 17 15 16 18 54 22 360 6 379 11 407 73 489 64 84 137 114 240 100 66 -8
112 0 120 22 3 7 8 53 12 102 5 68 3 93 -7 107 -23 31 -115 44 -198 28z"/>
<path d="M5280 3623 c-498 -3 -460 6 -460 -118 0 -68 2 -75 26 -94 26 -20 39
-21 296 -21 162 0 268 -4 266 -9 -1 -5 -131 -172 -288 -371 -157 -198 -293
-377 -303 -398 -13 -27 -17 -55 -14 -106 5 -113 -30 -106 497 -106 l449 0 20
26 c16 21 21 41 21 91 0 55 -4 67 -25 88 l-24 25 -291 0 c-159 0 -290 3 -290
8 0 4 133 174 296 377 163 204 302 382 310 397 19 37 19 157 -1 185 -8 11 -25
22 -37 24 -13 2 -214 3 -448 2z"/>
<path d="M7350 3610 c-20 -20 -20 -33 -20 -589 0 -680 -14 -616 139 -616 77 0
104 4 116 16 14 13 16 84 16 594 0 466 -2 580 -13 590 -7 7 -57 15 -115 19
-94 6 -105 4 -123 -14z"/>
<path d="M6057 3602 c-13 -14 -17 -38 -17 -91 0 -63 3 -75 25 -96 l24 -25 271
0 c148 0 270 -2 270 -5 0 -3 -129 -169 -286 -368 -157 -199 -295 -380 -306
-401 -16 -31 -19 -53 -16 -108 6 -111 -33 -103 488 -106 529 -3 490 -12 490
111 0 119 22 111 -331 117 l-302 5 263 330 c382 479 350 430 350 535 0 71 -3
90 -18 103 -17 15 -63 17 -454 17 -409 0 -436 -1 -451 -18z"/>
</g>
</svg>
